<?xml version="1.0" encoding="iso-8859-1"?>
<!-- Generator: Adobe Illustrator 19.0.0, SVG Export Plug-In . SVG Version: 6.00 Build 0)  -->
<svg version="1.1" id="Layer_1" xmlns="http://www.w3.org/2000/svg" xmlns:xlink="http://www.w3.org/1999/xlink" x="0px" y="0px"
	 viewBox="0 0 486.944 486.944" style="enable-background:new 0 0 486.944 486.944;" xml:space="preserve">
<g>
	<path style="fill:#FF9478;" d="M4.057,60l29.685,181.689c4.429,27.021,29.347,48.187,56.728,48.187h106.794L159.733,60H4.057z"/>
	<polygon style="fill:#FF7956;" points="159.733,60 197.264,289.875 353.144,289.875 315.613,60 	"/>
	<polygon style="fill:#FF9478;" points="482.887,100 482.887,60 356.143,60 362.673,100 	"/>
	<polygon style="fill:#FF9478;" points="482.887,289.875 482.887,249.875 387.143,249.875 393.674,289.875 	"/>
	<polygon style="fill:#FF9478;" points="482.887,194.518 482.887,154.518 371.574,154.518 378.105,194.518 	"/>
	<path style="fill:#2488FF;" d="M38.583,433.41c0,29.519,24.016,53.534,53.535,53.534V379.875
		C62.599,379.875,38.583,403.891,38.583,433.41z"/>
	<path style="fill:#2488FF;" d="M297.115,433.41c0,29.519,24.015,53.534,53.534,53.534V379.875
		C321.13,379.875,297.115,403.891,297.115,433.41z"/>
	<path style="fill:#005ECE;" d="M92.118,379.875v107.069c29.519,0,53.534-24.015,53.534-53.534S121.637,379.875,92.118,379.875z"/>
	<path style="fill:#005ECE;" d="M350.649,379.875v107.069c29.519,0,53.535-24.015,53.535-53.534S380.168,379.875,350.649,379.875z"
		/>
	<polygon style="fill:#2488FF;" points="356.143,60 352.877,40 378.23,40 378.23,0 305.817,0 315.613,60 353.144,289.875 
		358.042,319.875 58.583,319.875 58.583,359.875 405.102,359.875 393.674,289.875 387.143,249.875 378.105,194.518 371.574,154.518 
		362.673,100 	"/>
</g>
<g>
</g>
<g>
</g>
<g>
</g>
<g>
</g>
<g>
</g>
<g>
</g>
<g>
</g>
<g>
</g>
<g>
</g>
<g>
</g>
<g>
</g>
<g>
</g>
<g>
</g>
<g>
</g>
<g>
</g>
</svg>
